<?xml version="1.0" encoding="utf-8"?>
<!-- Generator: Adobe Illustrator 24.3.0, SVG Export Plug-In . SVG Version: 6.00 Build 0)  -->
<svg version="1.1" id="Capa_1" xmlns="http://www.w3.org/2000/svg" xmlns:xlink="http://www.w3.org/1999/xlink" x="0px" y="0px"
	 viewBox="0 0 144.8 32" style="enable-background:new 0 0 144.8 32;" xml:space="preserve">
<style type="text/css">
	.st0{fill:#8CCAD4;}
	.st1{fill:#52B0BE;}
	.st2{fill:#161616;}
</style>
<g>
	<g>
		<polygon class="st0" points="3.4,16 3.4,2.1 15.5,9 27.5,16 15.5,23 3.4,29.9 		"/>
		<polygon class="st1" points="17.7,21.7 3.4,13.8 3.4,16 3.4,29.9 15.5,23 		"/>
	</g>
	<path class="st2" d="M37.8,22V8.2h1.9l4.4,7c1,1.6,1.8,3.1,2.5,4.5l0,0c-0.2-1.8-0.2-3.5-0.2-5.7V8.2h1.7V22h-1.8L42,15
		c-1-1.5-1.9-3.1-2.6-4.6l-0.1,0c0.1,1.7,0.1,3.4,0.1,5.7V22H37.8z M53.4,9.3c0,0.6-0.4,1.1-1.1,1.1c-0.6,0-1.1-0.5-1.1-1.1
		c0-0.6,0.5-1.1,1.1-1.1C53,8.2,53.4,8.7,53.4,9.3z M51.4,22v-9.9h1.8V22H51.4z M58.4,9.3v2.8H61v1.4h-2.6v5.3
		c0,1.2,0.3,1.9,1.3,1.9c0.5,0,0.8-0.1,1-0.1l0.1,1.3c-0.3,0.1-0.9,0.2-1.6,0.2c-0.8,0-1.5-0.3-1.9-0.8c-0.5-0.5-0.7-1.4-0.7-2.6
		v-5.4h-1.5v-1.4h1.5V9.7L58.4,9.3z M63,15.2c0-1.2,0-2.2-0.1-3.1h1.6l0.1,1.9h0.1c0.4-1.3,1.5-2.2,2.7-2.2c0.2,0,0.3,0,0.5,0.1v1.7
		c-0.2,0-0.4-0.1-0.6-0.1c-1.3,0-2.2,1-2.4,2.3c0,0.2-0.1,0.5-0.1,0.8V22H63V15.2z M78.4,17c0,3.7-2.5,5.3-4.9,5.3
		c-2.7,0-4.7-2-4.7-5.1c0-3.3,2.2-5.3,4.9-5.3C76.5,11.9,78.4,13.9,78.4,17z M70.6,17.1c0,2.2,1.2,3.8,3,3.8c1.7,0,3-1.6,3-3.8
		c0-1.7-0.8-3.8-3-3.8C71.5,13.2,70.6,15.2,70.6,17.1z M80.7,15.3c0-1.3,0-2.3-0.1-3.2h1.6l0.1,1.7h0c0.7-1.2,1.9-1.9,3.5-1.9
		c2.4,0,4.2,2,4.2,5c0,3.6-2.2,5.3-4.5,5.3c-1.3,0-2.5-0.6-3-1.6h0V26h-1.8V15.3z M82.4,18c0,0.3,0,0.5,0.1,0.7
		c0.3,1.2,1.4,2.1,2.7,2.1c1.9,0,3-1.6,3-3.8c0-2-1-3.7-2.9-3.7c-1.2,0-2.4,0.9-2.7,2.2c-0.1,0.2-0.1,0.5-0.1,0.7V18z M92.3,7.5h1.8
		v6.2h0c0.3-0.5,0.7-1,1.3-1.3c0.5-0.3,1.2-0.5,1.8-0.5c1.3,0,3.5,0.8,3.5,4.2V22h-1.8v-5.7c0-1.6-0.6-2.9-2.3-2.9
		c-1.2,0-2.1,0.8-2.4,1.8c-0.1,0.2-0.1,0.5-0.1,0.9v6h-1.8V7.5z M104,12.1l2.2,5.8c0.2,0.7,0.5,1.4,0.6,2h0c0.2-0.6,0.4-1.3,0.6-2.1
		l2-5.8h1.9l-2.7,7c-1.3,3.4-2.2,5.1-3.4,6.2c-0.9,0.8-1.8,1.1-2.2,1.2l-0.4-1.5c0.4-0.1,1-0.4,1.6-0.9c0.5-0.4,1.1-1.1,1.5-2
		c0.1-0.2,0.1-0.3,0.1-0.4s0-0.2-0.1-0.5l-3.7-9.1H104z M113,7.5h1.8V22H113V7.5z M121.9,20.2c0.5,0.3,1.5,0.7,2.4,0.7
		c1.3,0,1.9-0.7,1.9-1.5c0-0.9-0.5-1.3-1.8-1.8c-1.8-0.6-2.6-1.6-2.6-2.8c0-1.6,1.3-2.9,3.4-2.9c1,0,1.9,0.3,2.4,0.6l-0.4,1.3
		c-0.4-0.2-1.1-0.6-2-0.6c-1.1,0-1.7,0.6-1.7,1.3c0,0.8,0.6,1.2,1.9,1.7c1.7,0.7,2.6,1.5,2.6,3c0,1.7-1.3,3-3.7,3
		c-1.1,0-2.1-0.3-2.8-0.7L121.9,20.2z M129.6,20.9c0-0.8,0.5-1.3,1.2-1.3c0.7,0,1.2,0.5,1.2,1.3c0,0.7-0.5,1.3-1.2,1.3
		C130.1,22.2,129.6,21.7,129.6,20.9z M139.7,22l-0.1-1.2h-0.1c-0.6,0.8-1.6,1.5-3,1.5c-2,0-3-1.4-3-2.8c0-2.4,2.1-3.7,5.9-3.7v-0.2
		c0-0.8-0.2-2.3-2.2-2.3c-0.9,0-1.9,0.3-2.6,0.7l-0.4-1.2c0.8-0.5,2-0.9,3.2-0.9c3,0,3.8,2.1,3.8,4v3.7c0,0.9,0,1.7,0.2,2.4H139.7z
		 M139.4,16.9c-2,0-4.2,0.3-4.2,2.2c0,1.2,0.8,1.7,1.7,1.7c1.3,0,2.1-0.8,2.4-1.7c0.1-0.2,0.1-0.4,0.1-0.6V16.9z"/>
</g>
</svg>
